<svg id="Layer_1" enable-background="new 0 0 512 512" height="512" viewBox="0 0 512 512" width="512" xmlns="http://www.w3.org/2000/svg"><g><g><path d="m512 271.135c0-25.049-13.371-47.864-34.675-60.205.608-3.72.915-7.493.915-11.287 0-38.364-31.212-69.576-69.576-69.576-3.3 0-6.59.232-9.841.693-18.025-29.089-49.65-46.864-84.239-46.864-13.5 0-26.886 2.771-39.209 8.07-11.179-14.666-28.61-23.461-47.425-23.461-13.738 0-27.091 4.815-37.668 13.411-9.416-4.569-19.77-6.957-30.348-6.957-28.513 0-53.879 17.41-64.428 43.272-1.029-.054-2.061-.08-3.091-.08-32.227 0-58.566 25.688-59.614 57.665-20.385 12.652-32.801 34.746-32.801 59.077 0 26.479 14.597 50.056 37.746 61.893.705 32.281 27.185 58.323 59.632 58.323.827 0 1.655-.017 2.481-.051 10.529 33.177 41.617 56.4 77.15 56.4 8.685 0 17.18-1.417 25.205-4.067 11.427 13.886 26.299 24.342 43.361 30.389 10.732 3.805 21.891 5.714 33.079 5.714 8.605 0 17.228-1.13 25.687-3.396 9.601-2.571 18.672-6.548 27.051-11.814 15.482 9.723 33.654 15.196 52.697 15.196 54.653 0 99.116-44.463 99.116-99.115 0-5.348-.438-10.703-1.3-15.985 18.165-12.567 30.095-33.534 30.095-57.245zm-212.834 149.645c-28.233 7.564-58.499-1.384-78.22-22.367 9.485-6.135 17.708-14.229 23.981-23.865 15.559 8.417 32.763 13.233 50.529 14.148 4.934 9.869 11.398 18.682 19.028 26.206-4.876 2.475-9.993 4.451-15.318 5.878zm164.039-76.415c0 43.624-35.491 79.115-79.116 79.115-26.931 0-51.693-13.691-66.15-35.738.901-.123 1.805-.233 2.701-.376 5.454-.871 9.169-5.998 8.298-11.452s-6-9.166-11.452-8.298c-5.206.831-10.525 1.253-15.811 1.253-19.613 0-38.583-5.704-54.866-16.495-.017-.012-.033-.025-.05-.037-5.539-3.668-10.727-7.907-15.421-12.602-3.905-3.904-10.237-3.904-14.143 0-3.905 3.905-3.905 10.237 0 14.143 3.454 3.454 7.133 6.701 10.993 9.713-11.132 17.15-30.433 27.869-51.179 27.869-29.089 0-54.219-20.666-59.798-49.154-.007-.04-.009-.08-.017-.12-.749-3.834-1.128-7.761-1.128-11.67 0-5.522-4.477-10-10-10s-10 4.478-10 10c0 1.521.057 3.043.143 4.564-18.559-.542-33.96-13.888-37.639-31.5 3.625.58 7.298.89 11.006.89 5.523 0 10-4.478 10-10s-4.477-10-10-10c-6.169 0-12.214-1.134-17.964-3.369-.058-.023-.117-.037-.176-.058-19.102-7.514-31.436-25.605-31.436-46.15 0-18.882 10.497-35.874 27.393-44.346.045-.023.088-.05.133-.073.076-.035.155-.06.23-.097 6.752-3.311 14.298-5.061 21.82-5.061h.223c5.523 0 10-4.478 10-10s-4.477-10-10-10h-.223c-5.141 0-10.289.587-15.313 1.721 4.703-16.647 20.019-28.886 38.15-28.886 2.635 0 5.268.263 7.832.775.039.008.076.021.115.03 7.633 1.563 14.58 5.3 20.089 10.808 1.953 1.953 4.512 2.929 7.071 2.929s5.119-.977 7.072-2.93c3.905-3.905 3.904-10.237-.001-14.142-5.544-5.543-12.059-9.887-19.2-12.864 8.185-16.739 25.36-27.799 44.543-27.799 9.39 0 18.524 2.637 26.423 7.624.021.014.04.03.061.043 3.096 1.956 5.98 4.263 8.573 6.854 1.953 1.953 4.511 2.929 7.07 2.929s5.119-.977 7.072-2.93c3.905-3.905 3.904-10.237-.001-14.142-.45-.45-.924-.874-1.386-1.311 6.039-3.596 12.948-5.521 20.205-5.521 11.525 0 22.254 4.982 29.687 13.393-.833.585-1.661 1.176-2.474 1.785-4.42 3.312-5.319 9.579-2.008 13.999 1.964 2.622 4.969 4.006 8.011 4.006 2.086 0 4.189-.65 5.987-1.997 2.993-2.242 6.169-4.286 9.439-6.076.056-.031.107-.068.162-.1 11.533-6.292 24.609-9.619 37.829-9.619 29.574 0 56.433 16.285 70.149 42.509.028.056.049.115.078.171 5.815 11.209 8.89 23.809 8.89 36.437 0 5.522 4.477 10 10 10s10-4.478 10-10c0-11.196-1.938-22.371-5.648-32.926.204-.003.407-.019.612-.019 27.336 0 49.576 22.24 49.576 49.576 0 4.669-.652 9.29-1.932 13.739-.017.054-.04.106-.056.161-2.328 7.97-6.661 15.286-12.532 21.156-3.905 3.905-3.906 10.236 0 14.143 1.953 1.952 4.512 2.929 7.071 2.929s5.118-.977 7.071-2.929c5.333-5.333 9.755-11.519 13.102-18.25 13.026 9.165 21.035 24.182 21.035 40.543 0 27.336-22.24 49.576-49.576 49.576-12.724 0-24.821-4.814-34.062-13.558-.007-.007-.015-.012-.022-.019-6.656-6.303-11.43-14.313-13.803-23.17-1.429-5.335-6.915-8.498-12.248-7.07-5.335 1.43-8.5 6.913-7.071 12.248 2.682 10.007 7.55 19.242 14.221 27.08-1.456 2.723-3.026 5.391-4.726 7.961-3.046 4.607-1.78 10.812 2.827 13.857 4.608 3.045 10.812 1.779 13.857-2.826 1.193-1.806 2.34-3.648 3.437-5.521 11.132 7.166 24.111 11.017 37.591 11.017 7.129 0 14.009-1.082 20.49-3.083.19 2.243.29 4.491.29 6.738z"/><path d="m361.087 351.365h-.007c-5.523 0-9.996 4.478-9.996 10s4.48 10 10.003 10 10-4.478 10-10-4.477-10-10-10z"/><path d="m311.512 246.612c11.698-17.287 17.053-37.558 14.249-55.895-.661-4.321-4.052-7.713-8.374-8.373-15.134-2.314-31.379.76-46.357 8.513-4.016-24.125-16.102-45.576-33.517-58.37-3.522-2.588-8.318-2.588-11.841 0-17.414 12.794-29.5 34.244-33.517 58.369-14.978-7.754-31.222-10.83-46.357-8.512-4.321.66-7.712 4.052-8.374 8.373-2.805 18.338 2.548 38.606 14.249 55.895-11.162 5.58-20.65 14.162-27.051 24.713-1.934 3.188-1.934 7.186 0 10.373 11.937 19.678 34.069 31.902 57.76 31.902 18.838 0 36.685-7.736 49.21-20.796 12.525 13.061 30.372 20.796 49.21 20.796 23.691 0 45.823-12.225 57.759-31.902 1.934-3.188 1.934-7.186 0-10.373-6.4-10.553-15.888-19.133-27.049-24.713zm-5.012-44.996c-.292 15.394-7.808 31.965-20.682 44.838-8.679 8.679-19.041 14.918-29.587 18.155 9.518-14.395 15.301-32.352 16.147-51.255 10.702-7.355 22.818-11.502 34.122-11.738zm-74.907-47.945c13.039 12.877 20.901 33.162 20.901 54.858s-7.862 41.98-20.901 54.857c-13.039-12.877-20.901-33.161-20.901-54.857s7.862-41.981 20.901-54.858zm-40.785 59.682c.846 18.903 6.628 36.858 16.145 51.253-10.547-3.237-20.907-9.473-29.586-18.153-12.873-12.873-20.389-29.445-20.681-44.838 11.304.237 23.42 4.383 34.122 11.738zm-8.425 80.247c-14.522 0-28.168-6.42-36.972-17.086 5.15-6.233 12.017-11.104 19.776-14.012 12.726 12.02 28.25 20.081 43.882 23.191-7.724 5.057-17.01 7.907-26.686 7.907zm98.42 0c-9.675 0-18.962-2.85-26.687-7.906 15.629-3.111 31.157-11.173 43.882-23.191 7.759 2.908 14.627 7.778 19.776 14.012-8.803 10.665-22.449 17.085-36.971 17.085z"/></g></g></svg>