<svg id="Layer_1" enable-background="new 0 0 511.999 511.999" height="512" viewBox="0 0 511.999 511.999" width="512" xmlns="http://www.w3.org/2000/svg"><g><g><path d="m418.138 58.035c-37.839-37.425-87.942-58.035-141.082-58.035s-103.243 20.61-141.082 58.034c-37.868 37.453-58.723 87.063-58.723 139.691 0 12.696-10.676 34.852-29.289 60.785-16.369 22.808-14.104 38.703-9.323 48.021 5.154 10.043 18.137 21.842 50.473 23.856v52.854c0 33.722 27.688 61.156 61.723 61.156 31.668 0 48.081 1.16 55.708 7.75 7.481 6.467 9.796 22.082 11.659 50.506.345 5.258 4.709 9.346 9.979 9.346h167.978c2.766 0 5.408-1.146 7.299-3.164s2.86-4.73 2.68-7.49c-1.744-26.604-2.309-45.084-1.888-61.791.139-5.521-4.225-10.11-9.745-10.249-.086-.002-.172-.003-.257-.003-5.406 0-9.855 4.313-9.992 9.748-.377 14.988.002 31.231 1.264 52.949h-148.019c-1.994-25.901-5.227-44.046-17.882-54.983-13.618-11.769-35.071-12.618-68.785-12.618-23.006 0-41.723-18.463-41.723-41.156v-17.568c.558.097 1.129.157 1.715.157h35.143c5.522 0 10-4.478 10-10s-4.478-10-10-10h-35.143c-.586 0-1.157.061-1.715.157v-25.302c0-5.522-4.478-10-10-10-22.454 0-38.409-4.967-42.679-13.286-3.163-6.163-.4-15.833 7.777-27.228 15.073-21.001 33.041-50.617 33.041-72.447.001-97.997 80.662-177.725 179.806-177.725s179.805 79.728 179.805 177.727c0 32.588-9.114 64.515-26.356 92.329-12.608 20.337-22.157 39.154-29.193 57.525-1.975 5.157.604 10.939 5.763 12.915 5.157 1.973 10.94-.604 12.915-5.763 6.579-17.179 15.579-34.888 27.514-54.141 19.206-30.981 29.358-66.552 29.358-102.866-.001-52.627-20.856-102.238-58.724-139.691z"/><path d="m137.191 214.542c-5.522 0-9.996 4.478-9.996 10s4.482 10 10.005 10 10-4.478 10-10-4.478-10-10-10z"/><path d="m398.541 404.506c5.522 0 10-4.478 10-10s-4.478-10-10-10h-.008c-5.522 0-9.996 4.478-9.996 10s4.481 10 10.004 10z"/><path d="m174.767 190.72c0-5.522-4.478-10-10-10-3.813 0-8.589-2.039-13.646-4.197-6.373-2.72-13.596-5.803-21.497-5.803-5.522 0-10 4.478-10 10s4.478 10 10 10c3.813 0 8.589 2.039 13.646 4.197 6.373 2.72 13.596 5.803 21.497 5.803 5.523 0 10-4.478 10-10z"/><path d="m209.398 207.74c-1.934 3.188-1.934 7.186 0 10.373 12.099 19.946 34.534 32.338 58.55 32.338 19.154 0 37.298-7.89 50-21.202 12.701 13.312 30.844 21.202 49.999 21.202 24.016 0 46.451-12.392 58.55-32.338 1.934-3.188 1.934-7.186 0-10.373-6.52-10.748-16.197-19.478-27.582-25.131 11.937-17.565 17.406-38.184 14.553-56.831-.661-4.32-4.052-7.712-8.373-8.372-15.408-2.357-31.956.792-47.198 8.729-4.038-24.557-16.316-46.402-34.029-59.415-3.523-2.588-8.318-2.588-11.842 0-17.711 13.012-29.99 34.857-34.028 59.414-15.241-7.936-31.787-11.085-47.198-8.729-4.321.66-7.712 4.052-8.373 8.372-2.854 18.647 2.616 39.266 14.554 56.831-11.386 5.657-21.064 14.386-27.583 25.132zm196.322 5.19c-8.972 10.936-22.924 17.521-37.773 17.521-10 0-19.591-2.986-27.53-8.276 16.011-3.103 31.94-11.34 44.966-23.667 7.991 2.976 15.057 7.992 20.337 14.422zm-32.563-30.429c-8.956 8.956-19.67 15.359-30.561 18.617 9.817-14.684 15.781-33.078 16.634-52.449 10.969-7.556 23.402-11.802 34.991-12.004-.247 15.728-7.908 32.681-21.064 45.836zm-55.21-94.612c13.347 13.109 21.397 33.815 21.397 55.965s-8.051 42.854-21.397 55.964c-13.347-13.109-21.396-33.814-21.396-55.964-.001-22.151 8.049-42.856 21.396-55.965zm-41.282 60.779c.853 19.371 6.816 37.764 16.632 52.448-10.89-3.258-21.604-9.661-30.559-18.616-13.156-13.155-20.817-30.108-21.063-45.836 11.586.205 24.022 4.45 34.99 12.004zm-26.153 49.84c13.027 12.328 28.953 20.564 44.966 23.667-7.939 5.29-17.53 8.276-27.53 8.276-14.85 0-28.802-6.586-37.773-17.521 5.28-6.428 12.347-11.446 20.337-14.422z"/></g></g></svg>