<svg id="Layer_1" enable-background="new 0 0 512 512" height="512" viewBox="0 0 512 512" width="512" xmlns="http://www.w3.org/2000/svg"><g><path d="m359.366 159.6v-16.066c0-8.284-6.716-15-15-15h-16.066c-16.505 0-32.491 3.574-47.146 10.442-5.447-15.651-14.396-29.995-26.458-42.055l-12.188-12.193c-5.854-5.856-15.346-5.859-21.207-.009 0 0-4.871 4.865-12.201 12.198-12.064 12.062-21.014 26.406-26.461 42.058-14.653-6.868-30.637-10.442-47.139-10.442h-16.066c-8.284 0-15 6.716-15 15v16.067c0 29.756 11.585 57.73 32.624 78.772 21.045 21.041 49.021 32.628 78.775 32.628h32.134c29.75 0 57.724-11.587 78.771-32.63 21.04-21.044 32.628-49.018 32.628-78.77zm-201.095 57.559c-22.946-22.95-23.837-49.396-23.837-58.626 8.941 0 24.852.951 42.197 11.148-.107 2.003-.162 4.009-.162 6.009 0 22.766 6.78 44.484 19.387 62.854-14.103-3.542-27.037-10.838-37.585-21.385zm73.625 17.675c-19.604-19.604-25.428-40.582-25.428-59.144 0-18.55 5.818-39.535 25.428-59.145 19.643 19.655 25.428 40.639 25.428 59.145 0 21.738-7.936 41.641-25.428 59.144zm36.041 3.712c12.606-18.37 19.388-40.091 19.388-62.855 0-2-.055-4.006-.162-6.009 17.352-10.2 33.27-11.148 42.204-11.148 0 9.231-.892 35.67-23.842 58.624-10.552 10.548-23.488 17.846-37.588 21.388z"/><path d="m466.74 259.469c-8.933-14.893-35.493-59.188-43.153-71.965-2.257-103.777-87.378-187.504-191.687-187.504-105.722 0-191.733 86.011-191.733 191.733v305.267c0 8.284 6.716 15 15 15s15-6.716 15-15v-305.267c0-89.179 72.554-161.733 161.733-161.733s161.732 72.554 161.732 161.733c0 2.717.738 5.384 2.136 7.714 0 0 34.762 57.975 45.232 75.433 2.835 4.744-1.711 14.32-10.501 14.32h-25.441c-6.861 0-12.849 4.656-14.538 11.307l-22.414 88.246c-1.93 7.604-8.758 12.914-16.606 12.914h-71.4c-8.284 0-15 6.716-15 15v80.333c0 8.284 6.716 15 15 15s15-6.716 15-15v-65.333h56.4c21.59 0 40.376-14.612 45.685-35.532l19.54-76.935h13.775c22.453 0 41.333-18.157 41.333-41.34 0-6.457-1.757-12.809-5.093-18.391z"/></g></svg>