<svg height="512pt" viewBox="0 -12 512 512" width="512pt" xmlns="http://www.w3.org/2000/svg"><path d="m256 94.894531c-2.628906 0-5.210938-1.070312-7.070312-2.941406-.460938-.457031-.878907-.96875-1.238282-1.519531-.363281-.539063-.671875-1.117188-.921875-1.71875-.25-.601563-.449219-1.230469-.570312-1.871094-.128907-.648438-.199219-1.300781-.199219-1.957031 0-.652344.070312-1.3125.199219-1.953125.121093-.640625.320312-1.269532.570312-1.867188.25-.613281.558594-1.191406.921875-1.730468.359375-.550782.777344-1.0625 1.238282-1.519532.460937-.460937.96875-.882812 1.519531-1.242187.539062-.359375 1.121093-.667969 1.730469-.917969.601562-.25 1.230468-.441406 1.871093-.570312 1.289063-.261719 2.609375-.261719 3.898438 0 .640625.128906 1.269531.320312 1.871093.570312.609376.25 1.1875.558594 1.730469.917969.546875.359375 1.058594.78125 1.519531 1.242187.460938.457032.878907.96875 1.238282 1.519532.359375.539062.671875 1.117187.921875 1.730468.25.597656.449219 1.226563.570312 1.867188.128907.640625.199219 1.300781.199219 1.953125 0 .65625-.070312 1.308593-.199219 1.957031-.121093.640625-.320312 1.269531-.570312 1.871094-.25.601562-.5625 1.179687-.921875 1.71875-.359375.550781-.777344 1.058594-1.238282 1.519531-.460937.472656-.972656.882813-1.519531 1.25-.542969.363281-1.121093.671875-1.730469.921875-.601562.25-1.230468.441406-1.871093.570312-.640625.128907-1.300781.199219-1.949219.199219zm0 0"/><path d="m438.820312 363.863281c36.558594-37.386719 61.355469-87.546875 69.824219-141.230469.003907-.011718.003907-.023437.003907-.035156 2.222656-14.101562 3.351562-28.550781 3.351562-42.949218 0-5.523438-4.476562-10-10-10h-28.828125c-6.519531 0-12.996094.304687-19.421875.910156-3.746094-35.660156-15.097656-70.6875-33.074219-101.863282l-8.230469-14.265624c-1.328124-2.296876-3.511718-3.976563-6.074218-4.660157-2.558594-.691406-5.289063-.328125-7.585938.996094l-42.792968 24.703125c-8.789063 5.074219-16.09375 10.601562-23.363282 16.433594-3.875-6.46875-7.976562-12.945313-12.304687-19.425782-23.757813-35.582031-45.804688-57.953124-46.011719-58.160156l-11.195312-11.339844c-1.878907-1.90625-4.441407-2.976562-7.117188-2.976562s-5.238281 1.070312-7.117188 2.976562l-11.179687 11.324219c-.222656.222657-22.261719 22.585938-46.027344 58.175781-4.332031 6.484376-8.433593 12.964844-12.308593 19.4375-7.265626-5.820312-14.574219-11.34375-23.394532-16.445312l-42.773437-24.703125c-2.292969-1.324219-5.023438-1.6875-7.585938-1s-4.75 2.363281-6.074219 4.660156l-8.234374 14.265625c-17.996094 31.183594-29.347657 66.214844-33.078126 101.863282-6.417968-.601563-12.886718-.90625-19.398437-.90625h-28.828125c-5.523438 0-10 4.476562-10 10 0 14.398437 1.128906 28.847656 3.351562 42.949218 0 .011719 0 .019532.003907.03125 8.46875 53.6875 33.265625 103.847656 69.824219 141.234375 7.097656 7.257813 14.59375 13.988281 22.425781 20.160157-46.589844 10.636718-70.171875 25.738281-70.171875 45 0 19.289062 23.679687 34.027343 72.394531 45.054687 42.363281 9.589844 98.535156 14.871094 158.171875 14.871094s115.808594-5.28125 158.171875-14.871094c48.710937-11.023437 72.394531-25.765625 72.394531-45.054687 0-19.257813-23.582031-34.363282-70.171875-45 7.832031-6.171876 15.328125-12.898438 22.425781-20.160157zm52.984376-174.214843c-.289063 7.496093-.910157 14.972656-1.847657 22.375-46.902343 6.34375-91.601562 29.257812-126.621093 65.070312-34.773438 35.5625-58.902344 82.679688-68.464844 133.402344-3.347656.179687-6.707032.273437-10.042969.273437h-18.636719c4.710938-122.816406 95.75-221.121093 206.980469-221.121093zm-125.8125-96.859376 34.128906-19.699218 3.230468 5.597656c16.710938 28.976562 27.214844 61.558594 30.585938 94.703125-20.503906 3.957031-40.292969 11.011719-58.917969 20.953125-6.230469-27.859375-17.070312-56.238281-32.390625-84.8125 7.75-6.28125 14.800782-11.796875 23.363282-16.742188zm-114.070313-64.421874 4.078125-4.132813 4.09375 4.148437c.789062.792969 77.550781 79.140626 96.769531 176.816407-16 10.636719-30.9375 23.554687-44.488281 38.597656-19.652344 21.820313-35.25 46.871094-46.375 74.03125v-195.839844c0-5.523437-4.476562-10-10-10s-10 4.476563-10 10v195.839844c-11.125-27.160156-26.722656-52.210937-46.375-74.03125-13.550781-15.042969-28.488281-27.957031-44.488281-38.597656 19.21875-97.6875 95.980469-176.023438 96.785156-176.832031zm-143.292969 50.324218 3.234375-5.601562 34.101563 19.691406c8.605468 4.980469 15.660156 10.492188 23.398437 16.757812-15.316406 28.574219-26.15625 56.945313-32.382812 84.804688-18.632813-9.945312-38.429688-17-58.941407-20.957031 3.359376-33.132813 13.863282-65.710938 30.589844-94.695313zm-69.800781 110.957032c111.230469 0 202.269531 98.304687 206.980469 221.121093h-18.636719c-3.339844 0-6.695313-.09375-10.042969-.273437-9.5625-50.722656-33.695312-97.839844-68.46875-133.402344-35.015625-35.8125-79.714844-58.726562-126.617187-65.070312-.9375-7.402344-1.558594-14.878907-1.847657-22.375zm-13.269531 43.125c83.4375 14.019531 151.246094 83.628906 170.71875 175.414062-83.433594-14.023438-151.242188-83.628906-170.71875-175.414062zm441.007812 196.25c0 3.289062-10.4375 15.050781-56.8125 25.550781-40.953125 9.269531-95.558594 14.375-153.753906 14.375s-112.800781-5.105469-153.753906-14.375c-46.375-10.5-56.8125-22.261719-56.8125-25.550781 0-4.203126 13.46875-18.476563 72.929687-29.21875 27.519531 16.6875 58.011719 27.058593 89.289063 30.039062h.003906c6.453125.613281 13.019531.925781 19.515625.925781h57.65625c6.496094 0 13.0625-.3125 19.515625-.925781 31.277344-2.980469 61.773438-13.351562 89.292969-30.035156 59.460937 10.738281 72.929687 25.011718 72.929687 29.214844zm-150.84375-20.835938c19.472656-91.785156 87.28125-161.394531 170.71875-175.414062-19.476562 91.785156-87.285156 161.390624-170.71875 175.414062zm0 0"/></svg>