<svg height="512pt" viewBox="0 0 512 512" width="512pt" xmlns="http://www.w3.org/2000/svg"><path d="m455.667969 304.855469h-93.621094c-5.523437 0-10-4.476563-10-10 0-5.523438 4.476563-10 10-10h93.621094c5.523437 0 10 4.476562 10 10 0 5.523437-4.476563 10-10 10zm0 0"/><path d="m405.855469 344.042969h-93.621094c-5.523437 0-10-4.476563-10-10 0-5.523438 4.476563-10 10-10h93.621094c5.523437 0 10 4.476562 10 10 0 5.523437-4.476563 10-10 10zm0 0"/><path d="m502 250.90625h-104.828125v-85.707031h93.527344c2.839843 0 5.542969-1.207031 7.441406-3.320313 1.894531-2.113281 2.804687-4.933594 2.5-7.757812-6.988281-64.476563-55.6875-113.109375-113.316406-113.195313-.050781 0-.101563 0-.152344 0-.054687 0-.105469 0-.15625 0-57.628906.085938-106.328125 48.71875-113.316406 113.195313-.304688 2.824218.605469 5.644531 2.5 7.757812 1.898437 2.109375 4.601562 3.320313 7.441406 3.320313h93.527344v85.707031h-100.777344c-4-15.515625-18.113281-27.019531-34.863281-27.019531-16.746094 0-30.863282 11.503906-34.859375 27.019531h-23.710938c-3.996093-15.515625-18.109375-27.019531-34.859375-27.019531s-30.863281 11.503906-34.859375 27.019531h-103.238281c-5.523438 0-10 4.480469-10 10v241.09375c0 5.523438 4.476562 10 10 10h277.644531c5.523438 0 10-4.476562 10-10s-4.476562-10-10-10h-267.644531v-44.996094c8.015625 4.945313 17.378906 7.6875 27.195312 7.6875 16.578126 0 32.015626-7.871094 41.761719-21.171875 9.746094 13.300781 25.183594 21.171875 41.761719 21.171875 16.574219 0 32.011719-7.871094 41.757812-21.175781 9.75 13.304687 25.1875 21.175781 41.761719 21.175781 16.578125 0 32.019531-7.871094 41.761719-21.175781 9.746094 13.304687 25.183594 21.175781 41.761719 21.175781s32.015625-7.871094 41.761719-21.171875c9.746093 13.300781 25.1875 21.171875 41.761718 21.171875 16.574219 0 32.015625-7.871094 41.761719-21.175781 9.746094 13.304687 25.183594 21.175781 41.761719 21.175781 9.816406 0 19.179687-2.742187 27.195312-7.6875v44.996094h-83.003906c-5.523438 0-10 4.476562-10 10s4.476562 10 10 10h93c5.523438 0 10-4.476562 10-10v-241.09375c0-5.519531-4.476562-10-10-10zm-22.949219-105.710938h-39.183593c-1.960938-26.027343-7.011719-49.886718-14.460938-67.980468-1.328125-3.230469-2.6875-6.183594-4.078125-8.882813 28.535156 12.851563 50.59375 41.347657 57.722656 76.863281zm-130.117187-67.980468c-7.445313 18.09375-12.5 41.953125-14.460938 67.980468h-39.183594c7.128907-35.519531 29.1875-64.011718 57.722657-76.863281-1.386719 2.699219-2.75 5.652344-4.078125 8.882813zm5.589844 67.980468c4.285156-54.382812 21.488281-84.269531 32.648437-84.269531 11.15625 0 28.359375 29.886719 32.644531 84.269531zm137.476562 224.660157c-5.742188 9.511719-15.988281 15.339843-27.195312 15.339843-10.660157 0-20.554688-5.308593-26.46875-14.203124-3.433594-5.160157-9.148438-8.238282-15.292969-8.238282-6.140625 0-11.855469 3.078125-15.289063 8.238282-5.914062 8.894531-15.8125 14.203124-26.472656 14.203124s-20.554688-5.308593-26.46875-14.203124c-3.433594-5.160157-9.148438-8.238282-15.289062-8.238282-6.144532 0-11.859376 3.078125-15.292969 8.238282-5.914063 8.894531-15.808594 14.203124-26.46875 14.203124-10.660157 0-20.558594-5.308593-26.472657-14.207031-3.433593-5.15625-9.148437-8.234375-15.289062-8.234375s-11.855469 3.078125-15.292969 8.238282c-3.738281 5.621093-9.066406 9.808593-15.171875 12.128906v-112.214844h266.464844zm-286.464844-98.949219v21.203125h-73.429687v-21.203125zm-73.429687 41.203125h73.433593v34.753906h-73.433593zm0 54.753906h28.828125c-1.425782 1.164063-2.695313 2.546875-3.746094 4.128907-5.65625 8.503906-14.957031 13.730468-25.082031 14.171874zm73.429687 0v17.121094c-7.183594-2.042969-13.507812-6.589844-17.765625-12.992187-1.050781-1.582032-2.320312-2.964844-3.746093-4.128907zm35.992188-122.976562c5.496094 0 10.355468 2.789062 13.234375 7.019531h-26.464844c2.878906-4.230469 7.738281-7.019531 13.230469-7.019531zm-93.429688 0c5.496094 0 10.351563 2.789062 13.230469 7.019531h-26.464844c2.882813-4.230469 7.738281-7.019531 13.234375-7.019531zm-35.992187 27.019531v108.269531c-3.042969-2.203125-5.714844-4.957031-7.859375-8.183593-3.433594-5.160157-9.148438-8.238282-15.289063-8.238282-6.144531 0-11.859375 3.078125-15.292969 8.238282-5.914062 8.894531-15.808593 14.203124-26.46875 14.203124-11.207031 0-21.453124-5.832031-27.195312-15.339843v-98.949219zm352.699219 163.785156c-10.660157 0-20.554688-5.308594-26.46875-14.203125-3.433594-5.160156-9.148438-8.238281-15.292969-8.238281-6.140625 0-11.855469 3.078125-15.289063 8.238281-5.914062 8.894531-15.8125 14.203125-26.472656 14.203125s-20.554688-5.308594-26.46875-14.203125c-3.433594-5.160156-9.148438-8.238281-15.289062-8.238281-6.144532 0-11.859376 3.078125-15.292969 8.238281-5.914063 8.894531-15.808594 14.203125-26.46875 14.203125-10.664063 0-20.558594-5.308594-26.472657-14.207031-3.433593-5.15625-9.148437-8.238281-15.289062-8.238281s-11.855469 3.082031-15.292969 8.242187c-5.914062 8.894531-15.808593 14.203125-26.46875 14.203125-10.660156 0-20.558593-5.308594-26.472656-14.203125-3.429687-5.160156-9.148437-8.242187-15.289063-8.242187-6.140624 0-11.859374 3.082031-15.289062 8.242187-5.914062 8.890625-15.8125 14.203125-26.472656 14.203125s-20.558594-5.3125-26.472656-14.203125c-3.429688-5.160156-9.144532-8.242187-15.289063-8.242187s-11.859375 3.082031-15.289063 8.242187c-5.914062 8.890625-15.8125 14.199219-26.472656 14.199219-11.203125 0-21.449218-5.828125-27.195312-15.339844v-21.847656c8.015625 4.945312 17.382812 7.691406 27.195312 7.691406 16.578125 0 32.015625-7.871094 41.761719-21.175781 9.746094 13.304687 25.1875 21.175781 41.761719 21.175781 16.574218 0 32.015625-7.871094 41.761718-21.175781 9.746094 13.304687 25.183594 21.175781 41.761719 21.175781s32.015625-7.871094 41.761719-21.175781c9.746094 13.304687 25.183594 21.175781 41.761719 21.175781 16.574219 0 32.011719-7.871094 41.761719-21.175781 9.746093 13.304687 25.183593 21.175781 41.757812 21.175781 16.578125 0 32.015625-7.871094 41.761719-21.175781 9.746093 13.304687 25.1875 21.175781 41.761719 21.175781 9.816406 0 19.179687-2.746094 27.195312-7.691406v21.847656c-5.742188 9.515625-15.988281 15.34375-27.195312 15.34375zm0 0"/><path d="m350 512c-.648438 0-1.308594-.070312-1.949219-.199219-.640625-.121093-1.269531-.320312-1.871093-.570312-.609376-.25-1.1875-.558594-1.730469-.921875-.550781-.359375-1.058594-.777344-1.519531-1.238282-.460938-.460937-.878907-.96875-1.238282-1.519531-.371094-.539062-.671875-1.121093-.921875-1.722656-.25-.609375-.449219-1.238281-.570312-1.878906-.128907-.640625-.199219-1.300781-.199219-1.949219s.070312-1.308594.199219-1.949219c.121093-.640625.320312-1.269531.570312-1.871093.25-.609376.550781-1.191407.921875-1.730469.359375-.550781.777344-1.058594 1.238282-1.519531.460937-.460938.96875-.878907 1.519531-1.238282.542969-.363281 1.121093-.671875 1.730469-.921875.601562-.25 1.230468-.441406 1.871093-.570312 1.277344-.257813 2.609375-.257813 3.898438 0 .640625.128906 1.269531.320312 1.871093.570312.609376.25 1.1875.558594 1.730469.921875.546875.359375 1.058594.777344 1.519531 1.238282 1.859376 1.859374 2.929688 4.441406 2.929688 7.070312s-1.070312 5.210938-2.929688 7.070312c-.460937.460938-.972656.878907-1.519531 1.238282-.542969.363281-1.121093.671875-1.730469.921875-.601562.25-1.230468.449219-1.871093.570312-.640625.128907-1.300781.199219-1.949219.199219zm0 0"/><path d="m102.089844 163.78125c-34.015625 0-61.6875-27.675781-61.6875-61.691406s27.671875-61.6875 61.6875-61.6875 61.691406 27.671875 61.691406 61.6875-27.675781 61.691406-61.691406 61.691406zm0-103.378906c-22.984375 0-41.6875 18.703125-41.6875 41.6875 0 22.988281 18.703125 41.691406 41.6875 41.691406 22.988281 0 41.691406-18.703125 41.691406-41.691406 0-22.984375-18.703125-41.6875-41.691406-41.6875zm0 0"/><path d="m102.089844 33.492188c-5.519532 0-10-4.476563-10-10v-13.492188c0-5.523438 4.480468-10 10-10 5.523437 0 10 4.476562 10 10v13.492188c0 5.523437-4.476563 10-10 10zm0 0"/><path d="m102.089844 204.183594c-5.519532 0-10-4.480469-10-10v-13.492188c0-5.523437 4.480468-10 10-10 5.523437 0 10 4.476563 10 10v13.492188c0 5.519531-4.476563 10-10 10zm0 0"/><path d="m194.183594 112.089844h-13.492188c-5.523437 0-10-4.476563-10-10 0-5.523438 4.476563-10 10-10h13.488282c5.523437 0 10 4.476562 10 10 .003906 5.523437-4.476563 10-9.996094 10zm0 0"/><path d="m23.492188 112.089844h-13.492188c-5.523438 0-10-4.476563-10-10 0-5.523438 4.476562-10 10-10h13.492188c5.523437 0 10 4.476562 10 10 0 5.523437-4.476563 10-10 10zm0 0"/><path d="m165.011719 49.171875c-2.558594 0-5.117188-.976563-7.070313-2.929687-3.90625-3.902344-3.90625-10.234376 0-14.140626l10.796875-10.800781c3.90625-3.90625 10.238281-3.90625 14.144531 0s3.90625 10.238281 0 14.140625l-10.800781 10.800782c-1.953125 1.953124-4.511719 2.929687-7.070312 2.929687zm0 0"/><path d="m28.371094 185.8125c-2.558594 0-5.117188-.976562-7.070313-2.929688-3.90625-3.90625-3.90625-10.238281 0-14.144531l10.800781-10.796875c3.90625-3.90625 10.238282-3.90625 14.140626 0 3.90625 3.90625 3.90625 10.238282 0 14.140625l-10.800782 10.800781c-1.953125 1.953126-4.511718 2.929688-7.070312 2.929688zm0 0"/><path d="m175.8125 185.8125c-2.558594 0-5.121094-.976562-7.074219-2.929688l-10.796875-10.800781c-3.90625-3.90625-3.90625-10.238281 0-14.140625 3.90625-3.90625 10.234375-3.90625 14.140625 0l10.800781 10.800782c3.90625 3.902343 3.90625 10.234374 0 14.140624-1.953124 1.953126-4.515624 2.929688-7.070312 2.929688zm0 0"/><path d="m39.171875 49.171875c-2.558594 0-5.117187-.976563-7.070313-2.929687l-10.800781-10.800782c-3.90625-3.902344-3.90625-10.234375 0-14.140625s10.234375-3.90625 14.140625 0l10.800782 10.800781c3.90625 3.90625 3.90625 10.238282 0 14.140626-1.953126 1.953124-4.511719 2.929687-7.070313 2.929687zm0 0"/></svg>